{"accessors":[{"bufferView":0,"componentType":5125,"count":5361,"name":"index","type":"SCALAR"},{"bufferView":1,"componentType":5126,"count":1096,"max":[0.039799999445676804,0.029600000008940697,0.0421999990940094],"min":[-0.039000000804662704,-0.030899999663233757,-0.04179999977350235],"name":"position","type":"VEC3"},{"bufferView":1,"byteOffset":12,"componentType":5126,"count":1096,"name":"texture_cooridinate","type":"VEC2"}],"asset":{"version":"2.0"},"bufferViews":[{"buffer":0,"byteLength":21444,"name":"indices"},{"buffer":0,"byteLength":21920,"byteOffset":21444,"byteStride":20,"name":"vertices"},{"buffer":1,"byteLength":99945}],"buffers":[{"byteLength":43364,"name":"geometry","uri":"data:application/octet-stream;base64,"},{"byteLength":99945,"name":"diffuse_texture","uri":"data:application/octet-stream;base64,"}],"extensionsUsed":["KHR_materials_unlit"],"images":[{"bufferView":2,"mimeType":"image/jpeg"}],"materials":[{"extensions":{"KHR_materials_unlit":{}},"name":"material_0","pbrMetallicRoughness":{"baseColorTexture":{"index":0}}}],"meshes":[{"primitives":[{"attributes":{"POSITION":1,"TEXCOORD_0":2},"indices":0,"material":0,"mode":4}]}],"nodes":[{"mesh":0}],"samplers":[{"wrapR":10497,"wrapS":10497,"wrapT":10497}],"scene":0,"scenes":[{"nodes":[0]}],"textures":[{"sampler":0,"source":0}]}
